PathFileType	4	(X/Y/Z)	C:\Users\WrightLab\Desktop\Jo\P5V33.trc
DataRate	CameraRate	NumFrames	NumMarkers	Units	OrigDataRate	OrigDataStartFrame	OrigNumFrames
100.00	100.00	      12	19	mm	100.00	534	      1066
Frame#	Time	Headset_Front			Headset_Back			Headset_Left			Headset_Right			Left_Shoulder			Right_Shoulder			Sternum			C7			Left Elbow			Right Elbow			Left Wrist			Right Wrist			Left ASIS			Right ASIS			S2			Left Knee			Right Knee			Left Ankle			Right Ankle			
		X1	Y1	Z1	X2	Y2	Z2	X3	Y3	Z3	X4	Y4	Z4	X5	Y5	Z5	X6	Y6	Z6	X7	Y7	Z7	X8	Y8	Z8	X9	Y9	Z9	X10	Y10	Z10	X11	Y11	Z11	X12	Y12	Z12	X13	Y13	Z13	X14	Y14	Z14	X15	Y15	Z15	X16	Y16	Z16	X17	Y17	Z17	X18	Y18	Z18	X19	Y19	Z19	

534	5.330	-369.83157	1546.28210	222.80292	-267.12955	1462.95007	294.67218				-147.49731	1617.91321	215.26147	-25.60835	1516.56213	43.18235	-427.36533	1445.24243	67.15698	-224.55164	1310.14453	123.67811	-250.25606	1528.15063	-67.03174	-35.42245	1277.23132	157.03322	-543.46832	1208.58423	102.51930	73.56975	1243.84021	-15.95718	-522.68579	1181.81787	337.70367	-68.47282	929.42883	110.77922	-345.11569	931.00525	126.38904	-176.64740	979.47540	-151.92813	-61.96657	486.60315	30.95914	-341.22803	504.18579	114.80624	-112.54800	116.63421	-209.37076	-315.86340	100.18668	138.86633	
535	5.340	-367.98840	1547.08264	229.29794	-263.98343	1464.31738	300.09351				-146.86879	1620.25635	218.13242	-26.80173	1517.26184	46.84271	-428.33282	1445.56885	73.65700	-224.78600	1311.46362	128.94102	-251.62144	1527.56091	-61.60796	-35.90086	1278.34106	161.24467	-543.37708	1207.96069	109.07765	71.93069	1244.77380	-12.69242	-519.38312	1181.25159	343.87738	-68.71799	930.91364	116.55713	-345.44638	932.28009	133.94554	-177.38016	979.88000	-146.05252	-63.77980	487.07236	38.76719	-342.64297	505.32483	118.61454	-113.19946	121.01826	-206.91547	-316.37802	99.80164	138.84686	
536	5.350	-366.54932	1547.80066	235.98674	-260.07898	1465.83484	305.14938							-28.52339	1518.73621	50.88511	-428.87292	1445.68933	81.38150	-226.01967	1312.57019	134.58029	-253.88367	1528.69507	-55.89145	-35.93329	1279.38037	164.97758	-543.27496	1207.54907	114.90729	70.88745	1245.62805	-7.98573	-517.32739	1181.85999	349.89160	-68.99399	931.97180	121.67878	-345.02151	933.14923	140.52364	-178.72929	980.30878	-139.98294	-65.52669	488.20444	48.01313	-344.02570	505.81680	122.59546	-113.07761	125.85263	-202.52458	-316.57208	99.65562	138.80162	
537	5.360	-364.85989	1548.68103	242.19020	-258.34180	1467.93286	311.23602	-145.12216	1624.36414	224.71762				-29.86106	1519.46191	54.84876	-430.63580	1446.45178	88.05954	-226.34312	1313.58960	139.83708	-256.38165	1530.12817	-51.13089	-35.79353	1280.64917	168.88440	-542.98779	1207.28064	120.60851	69.21140	1247.34937	-4.17467	-514.52808	1181.72681	355.63577	-69.12550	933.46918	126.70504	-344.78064	934.44769	147.27638	-179.85838	981.14130	-133.89253	-68.37605	488.66202	56.48352	-345.49380	506.14526	126.27969	-113.31060	131.28966	-198.66919	-316.81277	99.39301	138.65422	
538	5.370	-363.57452	1549.47266	248.96660	-255.20592	1469.77795	316.56137	-144.40150	1626.63989	227.33118				-30.68149	1520.63525	58.61977	-431.44360	1447.04883	94.32957	-227.30089	1314.17920	145.71672	-257.87286	1530.36377	-45.83350	-35.84022	1282.05164	172.89810	-543.00262	1206.50879	126.83029	67.84821	1248.36963	-1.29740	-511.41476	1181.94373	360.69611	-69.82366	934.43207	130.95543	-344.30173	935.81201	154.26570	-181.07585	981.95215	-128.09882	-70.31055	489.76920	65.92825	-347.60156	506.69696	130.79759	-113.73576	137.12816	-191.84854	-316.86523	99.31168	138.62965	
539	5.380	-361.88858	1550.55774	255.70325	-251.73065	1471.30505	321.98035	-143.32210	1628.09973	231.24548				-32.56303	1521.26257	63.01256	-433.23767	1447.98462	101.68289	-227.77583	1314.71667	150.88232	-259.61282	1531.18835	-40.52457	-35.37418	1282.88757	176.54871	-542.64197	1205.97144	133.07616	67.47365	1248.93311	1.46579	-507.81036	1182.40552	367.05157	-69.65638	935.71692	135.95889	-343.79187	936.87311	160.75598	-182.35818	982.38873	-121.29400	-71.72897	491.62131	74.80865	-346.75842	506.56064	134.29124	-114.24694	142.78880	-186.36411	-316.97247	99.10221	138.59566	
540	5.390	-359.94550	1551.23535	262.25403	-249.17461	1472.73010	327.75412	-142.55566	1629.72961	235.25905				-33.25874	1521.71570	67.82121	-434.57886	1448.81287	108.77503	-228.10167	1315.08203	156.10585	-261.67325	1531.34033	-34.88474	-34.95854	1283.86694	180.18163	-542.11896	1205.45935	139.36807	66.64384	1250.58887	5.74957	-504.38721	1182.75037	372.11984	-69.75330	936.18561	140.25261	-343.67624	937.65057	167.51041	-183.85762	983.39618	-115.65306	-72.68781	492.97672	83.79766	-349.17139	506.90271	137.94913	-113.34496	149.22997	-178.30482	-316.76953	99.21529	138.65923	
541	5.400	-358.45502	1552.54810	269.57391	-246.23770	1474.43396	333.39032	-141.38168	1631.05774	237.87482				-34.04070	1522.65393	71.26158	-434.93155	1448.87000	115.72532	-228.48706	1316.00647	161.21490	-263.17761	1531.90564	-30.03201	-34.94695	1285.09363	184.34435	-541.32288	1204.83765	145.07224	66.57586	1250.89746	8.44641	-500.74115	1183.43335	377.64624	-69.62347	936.90381	144.41312	-342.77670	938.44836	173.90974	-186.33307	984.02655	-110.07983	-74.48674	495.00940	92.62228	-350.91556	505.93793	141.09096	-114.01800	155.75882	-170.04926	-316.58081	99.00899	138.84236	
542	5.410	-356.33447	1553.81128	275.86862	-244.07330	1476.08252	339.64462	-140.01373	1632.23889	241.47897				-34.59477	1522.82922	75.57140	-435.19019	1449.06750	122.71606	-229.04292	1316.22815	166.40810	-264.97003	1532.39624	-24.36907	-34.80985	1285.88367	188.02988	-540.58594	1204.38525	151.57562	65.41379	1252.10071	11.87260	-496.80075	1183.98059	383.87683	-69.54392	937.09949	148.44925	-341.89520	937.96136	180.67050	-188.11700	984.38495	-104.35798	-77.12666	496.61954	101.82868	-353.69757	505.98459	144.02956	-114.22675	161.67122	-160.74130	-316.19638	98.98482	139.11682	
543	5.420	-354.73019	1554.77368	282.95438	-240.47574	1477.57739	344.86380	-138.86714	1633.00317	245.25290				-35.04878	1523.53369	79.36021	-435.18195	1449.19617	129.71236	-228.41827	1316.23181	171.49811	-266.28339	1532.41772	-18.17882	-34.06476	1286.55591	191.74457	-539.08679	1203.51099	157.92146	64.95124	1252.48975	14.05232	-492.27844	1183.69006	389.60324	-69.04327	937.76428	152.48714	-341.34973	938.08704	187.04602	-190.29539	984.54224	-98.56501	-76.05518	498.48215	110.50892	-355.75732	505.62732	147.39009	-113.59017	168.34781	-150.96216	-316.04233	98.88489	139.69595	
544	5.430	-352.65533	1556.25549	289.77707	-238.74577	1479.43237	351.02261	-137.11687	1633.77539	249.54779				-35.20972	1523.54199	83.39347	-435.17087	1449.20740	136.64684	-228.04106	1316.29419	176.61223	-267.35016	1532.72168	-12.69523	-33.42451	1287.05798	195.67435	-537.83270	1202.85144	164.49190	64.41494	1253.15161	16.47477	-488.67148	1184.02502	395.34763	-68.00398	937.95105	155.84373	-340.52115	937.93042	193.13924	-192.84851	985.56592	-93.49422	-76.46295	499.76062	119.31009	-358.55731	504.17551	150.19987	-113.17836	175.50023	-141.91408	-315.98325	98.98168	140.32724	
545	5.440	-350.27429	1557.31140	296.20044	-235.11288	1480.49268	356.47784	-135.43492	1634.49121	252.59537				-35.83136	1523.65381	86.83250	-434.53949	1448.76001	143.87666	-227.16519	1316.18506	181.55080	-268.39700	1533.43103	-7.31877	-32.30478	1287.51672	199.46407	-536.39478	1202.03320	171.69780	63.96763	1253.03357	19.76963	-484.48404	1184.11768	401.18839	-66.17522	938.46350	159.47455	-339.48654	937.63281	199.04802	-194.46100	985.40942	-88.40849	-76.70541	501.97821	128.84613	-360.23984	503.66870	153.01176	-111.58294	183.42934	-135.51852	-315.59482	98.92474	140.66246	
